<svg width="4096" height="1267" viewBox="0 0 4096 1267" fill="none" xmlns="http://www.w3.org/2000/svg">
<rect width="4096" height="1267" rx="200" fill="black"/>
<path d="M1489.5 702.5C1502 711.667 1536 730 1572 730M1572 730C1587.67 730.333 1625.5 725.4 1651.5 703C1642 712 1612.8 730 1572 730ZM1572 730V537M1572 730C1557.2 730 1529.5 611.667 1517.5 552.5M1572 730C1583.2 730 1612 611.667 1625 552.5M1572 730C1604 716 1645 638.833 1661.5 602M1572 730C1599.2 724.8 1643 679.833 1661.5 658M1572 730C1546 730 1499.83 644.333 1480 601.5M1572 730C1547.6 730 1500.5 681.667 1480 657.5" stroke="white" stroke-width="10"/>
<path d="M1809.15 694H1770.48V584.909H1809.47C1820.45 584.909 1829.89 587.093 1837.81 591.461C1845.73 595.793 1851.82 602.026 1856.08 610.158C1860.38 618.29 1862.53 628.02 1862.53 639.348C1862.53 650.712 1860.38 660.477 1856.08 668.645C1851.82 676.812 1845.69 683.08 1837.7 687.448C1829.75 691.816 1820.23 694 1809.15 694ZM1793.55 674.238H1808.19C1815.01 674.238 1820.75 673.031 1825.4 670.616C1830.09 668.165 1833.6 664.384 1835.95 659.27C1838.33 654.121 1839.52 647.48 1839.52 639.348C1839.52 631.287 1838.33 624.7 1835.95 619.586C1833.6 614.472 1830.11 610.708 1825.45 608.293C1820.8 605.879 1815.07 604.671 1808.25 604.671H1793.55V674.238ZM1916.47 695.598C1908.06 695.598 1900.81 693.893 1894.74 690.484C1888.7 687.04 1884.05 682.175 1880.78 675.889C1877.52 669.568 1875.88 662.093 1875.88 653.464C1875.88 645.048 1877.52 637.661 1880.78 631.305C1884.05 624.948 1888.65 619.994 1894.58 616.443C1900.55 612.892 1907.54 611.116 1915.57 611.116C1920.97 611.116 1925.99 611.987 1930.64 613.727C1935.33 615.431 1939.41 618.006 1942.89 621.45C1946.41 624.895 1949.14 629.227 1951.1 634.447C1953.05 639.632 1954.03 645.705 1954.03 652.665V658.897H1884.94V644.835H1932.67C1932.67 641.567 1931.96 638.673 1930.54 636.152C1929.12 633.631 1927.14 631.66 1924.62 630.239C1922.14 628.783 1919.24 628.055 1915.94 628.055C1912.5 628.055 1909.44 628.854 1906.78 630.452C1904.15 632.015 1902.09 634.128 1900.6 636.791C1899.11 639.419 1898.34 642.349 1898.31 645.58V658.95C1898.31 662.999 1899.05 666.496 1900.55 669.444C1902.07 672.391 1904.22 674.664 1906.99 676.262C1909.76 677.86 1913.05 678.659 1916.85 678.659C1919.37 678.659 1921.68 678.304 1923.77 677.594C1925.87 676.884 1927.66 675.818 1929.15 674.398C1930.64 672.977 1931.78 671.237 1932.56 669.178L1953.55 670.562C1952.48 675.605 1950.3 680.009 1947 683.773C1943.73 687.501 1939.5 690.413 1934.32 692.509C1929.17 694.568 1923.22 695.598 1916.47 695.598ZM2036.91 635.513L2016.14 636.791C2015.78 635.016 2015.02 633.418 2013.85 631.997C2012.67 630.541 2011.13 629.387 2009.21 628.535C2007.33 627.647 2005.07 627.203 2002.45 627.203C1998.93 627.203 1995.97 627.949 1993.55 629.44C1991.14 630.896 1989.93 632.849 1989.93 635.3C1989.93 637.253 1990.71 638.904 1992.27 640.254C1993.83 641.603 1996.52 642.686 2000.32 643.503L2015.12 646.486C2023.08 648.119 2029.01 650.747 2032.91 654.369C2036.82 657.991 2038.77 662.75 2038.77 668.645C2038.77 674.007 2037.19 678.712 2034.03 682.761C2030.91 686.809 2026.61 689.969 2021.14 692.242C2015.71 694.479 2009.44 695.598 2002.34 695.598C1991.51 695.598 1982.88 693.343 1976.45 688.833C1970.06 684.288 1966.31 678.109 1965.21 670.296L1987.53 669.124C1988.21 672.427 1989.84 674.948 1992.43 676.688C1995.02 678.393 1998.34 679.245 2002.39 679.245C2006.37 679.245 2009.57 678.482 2011.98 676.955C2014.43 675.392 2015.67 673.386 2015.71 670.935C2015.67 668.876 2014.8 667.189 2013.1 665.875C2011.4 664.526 2008.77 663.496 2005.22 662.786L1991.05 659.962C1983.06 658.364 1977.11 655.594 1973.2 651.653C1969.33 647.711 1967.4 642.686 1967.4 636.578C1967.4 631.322 1968.82 626.795 1971.66 622.995C1974.53 619.195 1978.56 616.266 1983.75 614.206C1988.97 612.146 1995.08 611.116 2002.07 611.116C2012.41 611.116 2020.54 613.3 2026.47 617.668C2032.44 622.036 2035.92 627.984 2036.91 635.513ZM2053.06 694V612.182H2075.75V694H2053.06ZM2064.46 601.635C2061.09 601.635 2058.19 600.516 2055.78 598.279C2053.4 596.006 2052.21 593.29 2052.21 590.129C2052.21 587.004 2053.4 584.323 2055.78 582.086C2058.19 579.813 2061.09 578.677 2064.46 578.677C2067.84 578.677 2070.71 579.813 2073.09 582.086C2075.51 584.323 2076.71 587.004 2076.71 590.129C2076.71 593.29 2075.51 596.006 2073.09 598.279C2070.71 600.516 2067.84 601.635 2064.46 601.635ZM2130.79 726.386C2123.44 726.386 2117.14 725.374 2111.88 723.35C2106.66 721.362 2102.51 718.645 2099.42 715.2C2096.33 711.756 2094.32 707.885 2093.4 703.588L2114.39 700.765C2115.03 702.398 2116.04 703.925 2117.42 705.346C2118.81 706.766 2120.64 707.903 2122.91 708.755C2125.22 709.643 2128.02 710.087 2131.33 710.087C2136.26 710.087 2140.33 708.879 2143.52 706.464C2146.76 704.085 2148.37 700.09 2148.37 694.479V679.511H2147.41C2146.42 681.784 2144.93 683.933 2142.94 685.957C2140.95 687.981 2138.39 689.632 2135.27 690.911C2132.14 692.189 2128.41 692.828 2124.08 692.828C2117.94 692.828 2112.34 691.408 2107.3 688.567C2102.3 685.69 2098.3 681.305 2095.32 675.41C2092.37 669.479 2090.9 661.987 2090.9 652.931C2090.9 643.663 2092.41 635.921 2095.42 629.707C2098.44 623.492 2102.46 618.84 2107.46 615.751C2112.5 612.661 2118.03 611.116 2124.03 611.116C2128.61 611.116 2132.44 611.898 2135.53 613.46C2138.62 614.987 2141.11 616.905 2142.99 619.213C2144.91 621.486 2146.38 623.723 2147.41 625.925H2148.26V612.182H2170.8V694.799C2170.8 701.759 2169.09 707.583 2165.68 712.271C2162.27 716.958 2157.55 720.474 2151.51 722.817C2145.51 725.197 2138.61 726.386 2130.79 726.386ZM2131.27 675.783C2134.93 675.783 2138.02 674.877 2140.54 673.066C2143.1 671.219 2145.05 668.592 2146.4 665.183C2147.79 661.738 2148.48 657.619 2148.48 652.825C2148.48 648.031 2147.8 643.876 2146.45 640.36C2145.1 636.809 2143.15 634.057 2140.59 632.104C2138.04 630.151 2134.93 629.174 2131.27 629.174C2127.54 629.174 2124.4 630.186 2121.84 632.21C2119.29 634.199 2117.35 636.969 2116.04 640.52C2114.72 644.071 2114.07 648.173 2114.07 652.825C2114.07 657.548 2114.72 661.631 2116.04 665.076C2117.39 668.485 2119.32 671.131 2121.84 673.013C2124.4 674.859 2127.54 675.783 2131.27 675.783ZM2211.55 646.699V694H2188.85V612.182H2210.48V626.617H2211.44C2213.25 621.859 2216.29 618.094 2220.55 615.325C2224.81 612.519 2229.98 611.116 2236.05 611.116C2241.73 611.116 2246.68 612.359 2250.91 614.845C2255.14 617.331 2258.42 620.882 2260.76 625.499C2263.11 630.08 2264.28 635.548 2264.28 641.905V694H2241.59V645.953C2241.62 640.946 2240.35 637.04 2237.75 634.234C2235.16 631.393 2231.59 629.973 2227.05 629.973C2223.99 629.973 2221.29 630.63 2218.95 631.944C2216.64 633.258 2214.83 635.175 2213.52 637.697C2212.24 640.183 2211.58 643.183 2211.55 646.699ZM2271.55 603.925V584.909H2361.15V603.925H2327.75V694H2304.95V603.925H2271.55ZM2416.81 659.163V612.182H2439.5V694H2417.72V679.138H2416.86C2415.02 683.933 2411.95 687.786 2407.65 690.697C2403.39 693.609 2398.18 695.065 2392.04 695.065C2386.57 695.065 2381.76 693.822 2377.61 691.337C2373.45 688.851 2370.2 685.317 2367.86 680.737C2365.55 676.156 2364.38 670.669 2364.34 664.277V612.182H2387.03V660.229C2387.07 665.058 2388.37 668.876 2390.92 671.681C2393.48 674.487 2396.91 675.889 2401.2 675.889C2403.94 675.889 2406.49 675.268 2408.87 674.025C2411.25 672.746 2413.17 670.864 2414.63 668.379C2416.12 665.893 2416.85 662.821 2416.81 659.163ZM2457.65 694V612.182H2480.34V694H2457.65ZM2469.05 601.635C2465.68 601.635 2462.78 600.516 2460.37 598.279C2457.99 596.006 2456.8 593.29 2456.8 590.129C2456.8 587.004 2457.99 584.323 2460.37 582.086C2462.78 579.813 2465.68 578.677 2469.05 578.677C2472.43 578.677 2475.3 579.813 2477.68 582.086C2480.1 584.323 2481.3 587.004 2481.3 590.129C2481.3 593.29 2480.1 596.006 2477.68 598.279C2475.3 600.516 2472.43 601.635 2469.05 601.635ZM2566.6 635.513L2545.82 636.791C2545.47 635.016 2544.7 633.418 2543.53 631.997C2542.36 630.541 2540.82 629.387 2538.9 628.535C2537.02 627.647 2534.76 627.203 2532.13 627.203C2528.62 627.203 2525.65 627.949 2523.24 629.44C2520.82 630.896 2519.62 632.849 2519.62 635.3C2519.62 637.253 2520.4 638.904 2521.96 640.254C2523.52 641.603 2526.2 642.686 2530 643.503L2544.81 646.486C2552.77 648.119 2558.7 650.747 2562.6 654.369C2566.51 657.991 2568.46 662.75 2568.46 668.645C2568.46 674.007 2566.88 678.712 2563.72 682.761C2560.6 686.809 2556.3 689.969 2550.83 692.242C2545.4 694.479 2539.13 695.598 2532.03 695.598C2521.2 695.598 2512.57 693.343 2506.14 688.833C2499.75 684.288 2496 678.109 2494.9 670.296L2517.22 669.124C2517.89 672.427 2519.53 674.948 2522.12 676.688C2524.71 678.393 2528.03 679.245 2532.08 679.245C2536.06 679.245 2539.25 678.482 2541.67 676.955C2544.12 675.392 2545.36 673.386 2545.4 670.935C2545.36 668.876 2544.49 667.189 2542.79 665.875C2541.08 664.526 2538.45 663.496 2534.9 662.786L2520.73 659.962C2512.74 658.364 2506.8 655.594 2502.89 651.653C2499.02 647.711 2497.08 642.686 2497.08 636.578C2497.08 631.322 2498.5 626.795 2501.35 622.995C2504.22 619.195 2508.25 616.266 2513.44 614.206C2518.66 612.146 2524.77 611.116 2531.76 611.116C2542.09 611.116 2550.23 613.3 2556.16 617.668C2562.12 622.036 2565.6 627.984 2566.6 635.513ZM2626.27 612.182V629.227H2577V612.182H2626.27ZM2588.18 592.58H2610.88V668.858C2610.88 670.953 2611.2 672.587 2611.83 673.759C2612.47 674.895 2613.36 675.694 2614.5 676.156C2615.67 676.617 2617.02 676.848 2618.55 676.848C2619.61 676.848 2620.68 676.759 2621.74 676.582C2622.81 676.369 2623.62 676.209 2624.19 676.102L2627.76 692.988C2626.63 693.343 2625.03 693.751 2622.97 694.213C2620.91 694.71 2618.4 695.012 2615.46 695.119C2609.99 695.332 2605.19 694.604 2601.07 692.935C2596.99 691.266 2593.81 688.673 2591.54 685.158C2589.27 681.642 2588.15 677.203 2588.18 671.841V592.58Z" fill="white"/>
</svg>
